<?xml version="1.0" standalone="no"?>
<!DOCTYPE svg PUBLIC "-//W3C//DTD SVG 20010904//EN"
 "http://www.w3.org/TR/2001/REC-SVG-20010904/DTD/svg10.dtd">
<svg version="1.0" xmlns="http://www.w3.org/2000/svg"
 width="1142.000000pt" height="1025.000000pt" viewBox="0 0 1142.000000 1025.000000"
 preserveAspectRatio="xMidYMid meet">

<g transform="translate(0.000000,1025.000000) scale(0.100000,-0.100000)"
fill="#000000" stroke="none">
<path d="M1200 10093 c-1 -5 -2 -106 -3 -225 l-2 -218 23 0 22 0 0 205 0 205
4395 0 4395 0 0 -665 0 -664 -222 -1 c-122 0 -223 -1 -224 -3 -4 -4 -6 -51 -5
-104 l1 -53 195 0 195 0 0 -1589 0 -1590 -22 -3 c-19 -4 -66 38 -240 211 -145
144 -221 212 -228 205 -6 -6 67 -86 220 -239 127 -127 230 -235 230 -242 0 -7
9 -13 20 -13 19 0 19 -8 19 -241 0 -133 2 -243 3 -245 2 -2 33 -3 68 -3 36 1
242 3 458 5 l392 5 0 -390 0 -390 -107 -3 c-60 -2 -231 -2 -380 0 l-273 3 0
64 c0 64 0 65 -27 65 -24 0 -1 27 192 220 146 146 216 223 209 230 -6 6 -86
-67 -239 -220 -206 -206 -233 -230 -262 -230 -22 0 -33 -5 -33 -15 0 -12 -30
-15 -187 -17 l-188 -3 0 -198 0 -197 -877 0 -878 0 0 370 0 370 418 0 417 0 3
410 2 410 305 0 305 0 0 40 0 40 -493 0 -493 0 -58 145 c-32 80 -60 145 -62
145 -2 0 -4 -74 -4 -165 0 -157 1 -165 20 -165 17 0 19 8 22 77 l3 78 30 -75
c16 -41 33 -76 37 -78 5 -2 8 -12 8 -23 0 -18 9 -19 150 -19 l150 0 0 -370 0
-370 -380 0 -380 0 0 410 0 410 -1109 0 -1109 0 -4 35 c-4 33 4 42 214 252
147 147 214 221 207 228 -6 6 -85 -66 -241 -223 -128 -127 -238 -232 -245
-232 -8 0 -13 -12 -13 -30 l0 -30 -385 0 -385 0 0 -185 0 -185 -335 0 c-217 0
-335 4 -335 10 0 6 -18 10 -40 10 l-40 0 0 -660 0 -660 -1220 0 -1220 0 0 35
0 35 -140 0 -140 0 0 2390 0 2390 668 -7 c504 -5 671 -3 676 5 5 9 -104 12
-443 12 l-451 0 0 30 0 30 450 0 c293 0 450 3 450 10 0 7 -157 10 -450 10
l-450 0 0 35 0 35 451 0 c295 0 448 3 444 10 -4 6 68 9 205 9 116 -1 213 1
216 4 24 24 -30 27 -417 27 -351 0 -409 -2 -409 -15 0 -11 17 -15 73 -18 39
-1 -13 -4 -118 -5 -104 -1 -362 -5 -572 -9 l-383 -6 0 144 0 144 220 219 c155
154 217 223 210 230 -7 7 -80 -59 -243 -222 l-232 -233 3 -97 c1 -53 0 -116
-3 -139 -5 -37 -10 -43 -31 -43 l-24 0 -2 -457 c0 -252 -1 -1377 0 -2500 l1
-2043 -490 0 -489 0 0 -910 c1 -897 1 -910 20 -910 11 0 20 5 20 10 0 7 161 9
485 8 267 -2 485 0 485 5 0 4 -218 7 -485 7 l-485 0 0 85 0 85 485 -2 c267 -2
485 0 485 5 0 4 -218 7 -485 7 l-485 0 0 85 0 85 479 0 c374 0 480 -3 484 -12
3 -8 6 -6 6 5 1 16 -28 17 -484 17 l-485 0 0 85 0 85 485 -2 c267 -2 485 0
485 5 0 4 -218 7 -485 7 l-485 0 0 605 0 605 470 0 470 0 0 -30 0 -30 175 0
175 0 0 -220 c0 -140 4 -220 10 -220 6 0 10 93 10 260 l0 260 35 0 36 0 -3
-260 c-2 -143 0 -260 5 -260 4 0 7 113 7 250 l0 250 35 0 35 0 3 -252 2 -253
3 253 2 252 1195 0 c790 0 1195 3 1195 10 0 6 9 10 20 10 11 0 20 7 20 15 0
13 44 15 335 15 l335 0 0 -35 0 -35 80 0 c44 0 80 4 80 8 0 4 103 111 230 237
184 183 227 231 218 243 -9 11 -53 -28 -227 -200 l-216 -213 -42 3 -43 3 0
207 0 207 144 -3 c131 -3 146 -1 154 15 12 23 15 354 4 371 -7 10 -43 12 -155
10 l-147 -3 0 378 0 377 120 0 120 0 0 -25 c0 -38 25 -90 51 -109 18 -12 47
-16 119 -16 l96 0 19 -50 c11 -27 22 -50 25 -50 4 0 5 -15 3 -32 -3 -27 -1
-29 6 -13 7 15 9 3 9 -45 -1 -54 -2 -59 -8 -30 -7 29 -7 27 -4 -14 3 -46 -19
-126 -32 -113 -3 3 2 19 10 36 9 16 16 36 16 43 0 7 -9 -6 -20 -29 -10 -24
-30 -54 -44 -68 -33 -33 -92 -34 -131 -3 -30 24 -64 89 -66 128 -1 23 -2 23
-9 -5 -5 -21 -7 -9 -6 42 0 39 4 69 9 66 4 -2 7 5 7 16 0 11 7 39 16 61 21 53
13 60 -14 12 -43 -77 -44 -210 -2 -292 25 -49 83 -90 129 -90 114 0 193 176
147 332 -9 30 -23 61 -31 68 -21 17 -19 37 4 43 26 7 52 49 58 97 6 40 6 40
49 40 l44 0 1 -717 c1 -395 1 -756 -1 -803 -1 -57 1 -82 8 -75 6 6 13 21 15
35 3 14 3 1 2 -28 -3 -47 -1 -52 17 -52 13 0 95 -74 230 -207 115 -115 211
-210 213 -212 2 -1 9 0 15 4 8 5 -65 85 -203 224 l-215 216 1 185 2 185 298 3
297 2 0 -177 c0 -98 3 -188 6 -201 6 -19 13 -22 55 -22 37 0 49 4 49 15 0 8 4
15 10 15 5 0 110 101 233 225 150 152 220 228 213 235 -7 7 -83 -62 -233 -212
-123 -123 -223 -217 -223 -210 0 6 -7 12 -15 12 -13 0 -15 29 -15 200 l0 200
-340 0 -340 0 0 55 0 55 233 0 c250 0 299 7 407 56 203 92 335 251 395 474 23
88 25 111 25 308 l0 212 203 0 203 0 -4 -156 -4 -156 163 -164 164 -164 167 0
168 0 0 320 c0 207 4 320 10 320 7 0 10 -163 9 -472 -1 -260 -4 -463 -6 -451
-7 37 -27 44 -139 46 -132 2 -171 -13 -221 -87 -29 -42 -33 -57 -33 -110 0
-75 27 -127 86 -169 52 -36 105 -43 211 -27 70 11 86 17 93 34 5 13 9 -48 9
-151 l1 -173 -395 0 -395 0 0 -40 0 -40 195 0 195 0 0 -25 c0 -14 4 -25 8 -25
4 0 105 -98 225 -217 173 -175 219 -215 229 -205 10 10 -27 52 -189 215 -183
183 -201 205 -196 229 l5 28 1264 0 1264 0 0 -1675 0 -1675 -1265 0 -1265 0
-2 420 -3 420 182 182 c142 141 179 184 168 191 -12 6 -63 -40 -211 -187 -108
-108 -200 -196 -205 -196 -5 0 -9 -25 -9 -55 l0 -55 -235 0 -235 0 0 964 0
965 235 1 235 1 0 -40 c0 -35 3 -39 28 -43 47 -7 52 -1 52 68 0 59 -2 64 -22
65 -13 1 -26 1 -30 0 -4 0 -5 5 -3 12 5 11 -227 13 -667 7 -5 0 -8 -4 -8 -9 0
-5 -104 -113 -232 -240 -180 -180 -229 -234 -220 -243 10 -10 61 36 230 205
l218 218 50 -3 49 -3 3 -1002 2 -1003 275 0 275 0 0 -320 0 -320 -243 0 -243
0 -232 232 c-185 187 -234 230 -244 220 -10 -10 31 -56 207 -232 l220 -220
-1428 0 -1427 0 2 1323 3 1322 1054 3 1053 2 -6 23 c-3 12 -6 28 -6 35 0 9
-335 12 -1640 12 l-1640 0 0 -255 0 -255 -265 0 c-290 0 -275 3 -259 -58 l6
-22 302 0 301 0 0 258 0 257 508 3 507 2 0 -1325 0 -1325 -1295 0 -1295 0 0
791 c0 782 0 791 -20 796 -19 5 -20 14 -20 254 l0 248 205 3 205 3 197 -197
c157 -157 200 -195 211 -186 11 9 -29 54 -202 227 -204 204 -216 218 -216 254
0 34 -2 37 -27 37 -24 0 -1 27 192 220 167 168 217 222 208 231 -9 9 -64 -40
-233 -209 l-221 -222 -182 -2 -181 -3 -2 -30 c-2 -44 -3 -45 -19 -45 -13 0
-15 -42 -17 -292 -3 -273 -4 -293 -20 -290 -17 3 -18 -44 -18 -871 l0 -874
583 -6 c703 -7 8393 -4 8401 3 3 3 6 868 7 1923 l3 1917 395 2 396 3 3 433 2
432 -393 0 -394 0 -6 302 c-4 166 -7 1034 -7 1930 l0 1628 -30 0 -30 0 0 685
0 685 -4435 0 c-2439 0 -4435 -3 -4435 -7z m1368 -1350 c-32 -2 -84 -2 -115 0
-32 2 -6 3 57 3 63 0 89 -1 58 -3z m-1358 -1288 l0 -365 -35 0 -35 0 0 365 0
365 35 0 35 0 0 -365z m80 -1 l0 -365 -32 3 -33 3 -3 363 -2 362 35 0 35 0 0
-366z m-80 -2409 l0 -395 -35 0 -35 0 0 395 0 395 35 0 35 0 0 -395z m80 0 l0
-395 -35 0 -35 0 0 395 0 395 35 0 35 0 0 -395z m4146 223 c-3 -18 -15 -44
-25 -58 -17 -24 -23 -25 -138 -28 -114 -2 -120 -2 -141 21 -13 13 -25 41 -29
61 l-6 36 173 0 173 0 -7 -32z m1227 -35 c20 -210 0 -402 -56 -540 -28 -68
-98 -177 -125 -192 -9 -6 -13 -11 -9 -11 27 -1 -107 -102 -191 -144 -127 -64
-195 -76 -439 -76 l-213 0 0 515 0 515 514 0 513 0 6 -67z m1065 -40 c2 -66
-1 -103 -8 -103 -5 0 -10 6 -10 13 0 8 -3 9 -8 1 -4 -6 -14 -14 -22 -17 -12
-4 -11 -6 3 -6 10 -1 17 -9 17 -21 0 -11 5 -20 11 -20 6 0 9 9 6 20 -3 11 -1
20 4 20 5 0 9 -16 9 -35 l0 -35 -55 0 c-45 0 -55 3 -55 17 0 25 -30 53 -58 53
-29 0 -62 -26 -62 -49 0 -10 5 -7 13 9 14 28 59 39 83 19 17 -14 19 -60 2 -77
-20 -20 -65 -14 -82 10 -9 12 -16 18 -16 14 0 -20 35 -46 60 -46 15 0 35 9 45
20 12 14 31 20 58 20 l40 0 -5 -52 c-3 -29 -3 -47 -1 -40 3 6 11 12 19 12 12
0 14 -22 13 -121 l-1 -121 -160 5 -160 5 -154 158 -154 157 0 142 c0 78 3 145
7 148 4 4 144 6 312 5 l306 -3 3 -102z m2322 -133 l0 -210 -35 0 -35 0 0 210
0 210 35 0 35 0 0 -210z m80 0 l0 -210 -35 0 -35 0 0 210 0 210 35 0 35 0 0
-210z m-5370 -145 l0 -85 -325 0 -325 0 0 85 0 85 325 0 325 0 0 -85z m2970
50 c0 -19 -4 -35 -10 -35 -11 0 -14 53 -3 63 11 12 13 8 13 -28z m-2538 -172
c42 -43 101 -46 147 -7 17 14 31 21 31 16 0 -6 -15 -21 -32 -34 -41 -29 -97
-30 -135 -2 -30 22 -73 90 -72 114 0 8 7 -1 15 -20 8 -19 29 -50 46 -67z
m-432 -53 l0 -80 -325 0 -325 0 0 80 0 80 325 0 325 0 0 -80z m0 -185 l0 -85
-325 0 -325 0 0 85 0 85 325 0 325 0 0 -85z m375 -190 c0 -102 -4 -185 -8
-185 -5 0 -6 3 -3 8 2 4 -50 4 -117 -1 -67 -4 -127 -5 -134 -2 -10 3 -13 47
-13 178 0 96 3 177 7 180 3 4 65 7 137 7 l131 0 0 -185z m-375 15 c0 -69 -2
-80 -17 -80 -196 -1 -594 -1 -610 -1 -22 1 -23 5 -23 81 l0 80 325 0 325 0 0
-80z m2967 27 c23 -22 36 -170 24 -255 -6 -42 -15 -80 -19 -84 -4 -4 -46 -12
-94 -19 -99 -15 -147 -6 -198 38 -78 65 -93 185 -34 260 17 21 50 48 75 61 40
22 52 23 139 17 52 -3 101 -12 107 -18z m-2967 -212 l0 -85 -325 0 -325 0 0
85 0 85 325 0 325 0 0 -85z m5215 -245 l0 -175 -185 0 -185 0 -3 165 c-1 90 0
170 3 177 3 11 44 13 187 11 l183 -3 0 -175z m-5215 65 l0 -85 -325 0 -325 0
0 85 0 85 325 0 325 0 0 -85z m0 -180 l0 -85 -325 0 -325 0 0 85 0 85 325 0
325 0 0 -85z m5290 -620 l0 -255 -35 0 -35 0 0 255 0 255 35 0 35 0 0 -255z
m80 0 l0 -255 -35 0 -35 0 0 255 0 255 35 0 35 0 0 -255z m-6780 -2940 l0 -35
-775 0 -775 0 0 35 0 35 775 0 775 0 0 -35z m2830 0 l0 -35 -770 0 -770 0 0
35 0 35 770 0 770 0 0 -35z m3530 0 l0 -35 -775 0 -775 0 0 35 0 35 775 0 775
0 0 -35z m-6360 -80 l0 -35 -775 0 -775 0 0 35 0 35 775 0 775 0 0 -35z m2830
0 l0 -35 -770 0 -770 0 0 35 0 35 770 0 770 0 0 -35z m3530 0 l0 -35 -775 0
-775 0 0 35 0 35 775 0 775 0 0 -35z"/>
<path d="M6285 5250 c-123 -30 -237 -95 -347 -198 -185 -175 -279 -387 -245
-553 6 -32 5 -37 -13 -42 -30 -8 -24 -33 13 -58 42 -30 51 -40 66 -67 13 -25
33 -28 50 -8 9 11 20 12 44 5 171 -49 444 81 610 291 203 257 218 522 34 617
-36 18 -158 26 -212 13z m200 -29 c51 -23 101 -79 114 -128 17 -60 13 -143 -9
-192 -11 -23 -17 -48 -13 -54 3 -5 1 -7 -5 -3 -6 3 -20 -7 -31 -23 -11 -16
-53 -44 -93 -64 -114 -57 -187 -124 -279 -256 -85 -122 -196 -182 -297 -161
-28 7 -62 20 -74 30 l-22 18 33 37 c30 35 31 39 16 54 -15 15 -18 14 -45 -16
-36 -40 -43 -41 -60 -5 -21 46 -24 142 -5 192 9 25 18 56 19 70 9 93 165 298
301 394 82 59 205 121 190 96 -9 -14 -5 -13 40 10 52 26 163 27 220 1z m64
-443 c-91 -179 -273 -345 -452 -413 -93 -35 -99 -32 -28 16 46 30 73 59 107
112 67 103 163 194 259 244 44 23 91 53 104 67 33 35 37 26 10 -26z m-725
-307 c5 -7 -33 -60 -70 -100 -8 -8 -33 22 -27 32 3 6 1 7 -5 3 -14 -8 -52 14
-52 31 0 7 7 13 16 13 10 0 14 -6 10 -15 -3 -8 -1 -15 4 -15 6 0 10 5 10 10 0
6 9 5 21 -2 19 -12 24 -9 48 19 27 34 36 39 45 24z m-34 -105 c0 -2 -7 -9 -15
-16 -12 -10 -15 -10 -15 4 0 9 7 16 15 16 8 0 15 -2 15 -4z m18 -28 c-6 -18
-28 -21 -28 -4 0 9 7 16 16 16 9 0 14 -5 12 -12z"/>
<path d="M6178 5173 c-14 -16 -50 -67 -81 -114 -65 -99 -159 -191 -237 -233
-57 -30 -120 -83 -120 -100 0 -6 16 7 37 27 20 21 61 50 92 65 72 35 175 137
236 232 26 41 63 92 83 113 20 20 31 37 26 37 -6 0 -22 -12 -36 -27z"/>
<path d="M5859 4568 c-1 -2 -2 -18 -4 -36 -2 -24 2 -35 17 -43 11 -6 22 -8 25
-6 2 3 -5 8 -16 12 -12 3 -21 10 -21 15 0 5 12 3 27 -5 30 -16 53 -5 53 25 0
31 -23 41 -54 25 -25 -13 -27 -13 -22 0 4 12 0 23 -5 13z m71 -38 c0 -10 -3
-21 -7 -23 -5 -3 -8 8 -8 23 0 15 3 26 8 23 4 -2 7 -13 7 -23z m-20 0 c0 -5
-7 -10 -15 -10 -8 0 -15 5 -15 10 0 6 7 10 15 10 8 0 15 -4 15 -10z"/>
<path d="M5805 5231 c-49 -23 -89 -64 -109 -113 -19 -44 -23 -298 -6 -298 6 0
10 52 10 135 0 153 9 185 61 229 50 43 73 48 219 56 l135 7 -135 1 c-112 1
-142 -2 -175 -17z"/>
<path d="M7120 5142 l0 -127 153 -153 c84 -83 154 -152 157 -152 3 0 -64 70
-148 155 l-153 155 3 125 c2 69 0 125 -4 125 -5 0 -8 -57 -8 -128z"/>
<path d="M7698 5218 c5 -95 9 -104 11 -25 0 42 -2 77 -6 77 -5 0 -7 -24 -5
-52z"/>
<path d="M7588 5219 c-10 -5 -18 -15 -18 -20 0 -6 7 -3 16 5 19 19 45 21 64 4
12 -11 12 -10 1 5 -15 19 -37 21 -63 6z"/>
<path d="M7603 5203 c-18 -7 -16 -42 3 -50 8 -3 20 -1 26 5 8 8 4 9 -12 5 -18
-5 -21 -2 -18 13 2 10 11 18 21 18 9 -1 14 2 11 7 -6 10 -12 10 -31 2z"/>
<path d="M7570 5165 c-1 -34 59 -47 81 -17 11 14 11 15 -1 5 -20 -19 -57 -16
-69 5 -6 9 -11 12 -11 7z"/>
<path d="M7690 4745 c0 -5 5 -17 10 -25 5 -8 10 -10 10 -5 0 6 -5 17 -10 25
-5 8 -10 11 -10 5z"/>
<path d="M4947 4533 c-3 -5 25 -7 61 -5 116 5 130 9 35 10 -50 1 -94 -1 -96
-5z"/>
<path d="M4881 4416 c-9 -10 -9 -16 -1 -21 17 -10 37 12 24 25 -8 8 -15 6 -23
-4z m19 -6 c0 -5 -5 -10 -11 -10 -5 0 -7 5 -4 10 3 6 8 10 11 10 2 0 4 -4 4
-10z"/>
<path d="M4928 4383 c7 -3 16 -2 19 1 4 3 -2 6 -13 5 -11 0 -14 -3 -6 -6z"/>
<path d="M4881 4363 c-1 -21 3 -23 49 -23 46 0 50 2 49 23 -1 16 -2 18 -6 5
-3 -13 -15 -18 -43 -18 -28 0 -40 5 -43 18 -4 13 -5 11 -6 -5z"/>
<path d="M4877 4324 c-9 -10 2 -24 19 -24 8 0 14 8 13 18 0 10 -3 12 -6 5 -2
-7 -9 -13 -14 -13 -6 0 -7 5 -4 10 7 11 2 13 -8 4z"/>
<path d="M7494 4391 c-23 -10 -54 -36 -70 -57 -25 -32 -29 -47 -29 -99 0 -52
4 -67 28 -98 26 -35 83 -74 93 -64 3 2 -9 10 -26 17 -17 7 -43 29 -58 48 -22
30 -27 46 -27 96 0 96 48 148 154 166 42 7 43 8 11 9 -19 0 -54 -8 -76 -18z"/>
<path d="M7626 4385 c10 -8 25 -15 32 -15 7 0 10 -5 6 -12 -4 -6 -3 -8 3 -5
12 8 48 -29 62 -63 5 -14 10 -18 10 -9 1 23 -46 82 -82 101 -40 21 -58 23 -31
3z"/>
<path d="M7678 4275 c-13 -29 -38 -33 -39 -7 0 13 -2 14 -6 2 -4 -8 -13 -20
-21 -26 -12 -9 -12 -13 -2 -19 8 -5 11 -4 6 3 -4 7 7 12 31 14 21 2 37 8 36
13 0 6 3 18 8 28 5 9 7 17 4 17 -3 0 -11 -11 -17 -25z"/>
<path d="M7707 4271 c-4 -17 -3 -21 5 -13 5 5 8 16 6 23 -3 8 -7 3 -11 -10z"/>
<path d="M7742 4235 c0 -16 2 -22 5 -12 2 9 2 23 0 30 -3 6 -5 -1 -5 -18z"/>
<path d="M7551 4234 c0 -11 3 -14 6 -6 3 7 2 16 -1 19 -3 4 -6 -2 -5 -13z"/>
<path d="M7705 4210 c6 -29 -7 -43 -18 -20 -3 6 -4 5 -3 -2 6 -28 31 -12 33
20 1 17 -3 32 -9 32 -5 0 -7 -12 -3 -30z"/>
<path d="M7630 4210 c0 -11 2 -20 4 -20 2 0 6 9 9 20 3 11 1 20 -4 20 -5 0 -9
-9 -9 -20z"/>
<path d="M7670 4220 c0 -5 5 -10 11 -10 5 0 7 5 4 10 -3 6 -8 10 -11 10 -2 0
-4 -4 -4 -10z"/>
<path d="M7731 4188 c-1 -9 -13 -31 -27 -48 -21 -24 -29 -28 -36 -18 -7 10 -8
8 -4 -4 3 -11 0 -18 -8 -18 -8 0 -16 -5 -18 -11 -2 -6 -28 -14 -58 -19 -50 -7
-51 -8 -16 -9 55 -1 122 33 153 80 14 21 23 44 20 51 -4 9 -6 7 -6 -4z"/>
<path d="M9620 4113 c0 -5 42 -7 92 -5 168 5 185 8 46 10 -76 1 -138 -1 -138
-5z"/>
<path d="M9963 4010 c0 -47 2 -66 4 -42 2 23 2 61 0 85 -2 23 -4 4 -4 -43z"/>
<path d="M9772 3892 c-2 -23 -5 -23 -76 -20 -41 2 -72 0 -69 -4 2 -5 35 -8 74
-8 68 0 69 0 69 -26 0 -22 -2 -24 -15 -14 -12 10 -16 9 -21 -5 -8 -19 13 -45
24 -30 8 12 52 12 71 1 15 -10 32 10 24 30 -5 15 -43 15 -40 0 1 -5 -6 -11
-15 -14 -14 -3 -18 6 -21 55 -2 32 -4 48 -5 35z m-17 -81 c3 -5 1 -12 -5 -16
-5 -3 -10 1 -10 9 0 18 6 21 15 7z m90 0 c3 -5 1 -12 -5 -16 -5 -3 -10 1 -10
9 0 18 6 21 15 7z"/>
<path d="M9960 3887 c0 -14 -11 -17 -69 -17 -46 0 -71 4 -74 13 -3 7 -6 5 -6
-5 -1 -16 9 -18 74 -18 59 0 77 3 82 15 3 9 3 19 -1 22 -3 4 -6 -1 -6 -10z"/>
<path d="M3921 8732 l447 -2 4 -35 4 -35 -448 0 c-292 0 -448 -3 -448 -10 0
-7 155 -10 445 -10 l445 0 0 -30 0 -30 -446 0 c-316 0 -443 -3 -439 -11 5 -7
302 -8 1031 -3 l1024 7 0 -1241 0 -1242 39 0 38 0 7 83 c3 45 9 234 12 420 l7
337 218 0 219 0 0 -270 c0 -199 -3 -270 -12 -270 -6 0 -9 -3 -5 -6 3 -3 15 -3
26 1 21 6 21 12 21 271 0 169 -4 264 -10 264 -5 0 -10 7 -10 15 0 13 -32 15
-230 15 l-230 0 0 270 0 270 200 0 200 0 0 240 0 240 -199 0 -198 0 -7 92 c-3
50 -6 185 -6 300 l0 208 303 -5 c166 -3 310 -6 319 -5 16 0 18 -18 20 -192 l3
-193 483 -3 482 -2 0 193 0 194 122 6 c66 4 186 7 265 7 l143 0 0 -760 0 -760
40 0 40 0 0 761 0 762 53 -7 c28 -3 157 -6 285 -6 199 0 232 -2 232 -15 0 -13
50 -15 390 -15 340 0 390 2 390 15 0 13 -29 15 -201 15 -131 0 -198 3 -194 10
4 7 -147 10 -444 10 l-451 0 0 30 0 30 450 0 c293 0 450 3 450 10 0 7 -157 10
-450 10 l-450 0 0 35 0 35 453 2 c248 2 -747 3 -2213 3 -1466 0 -2464 -1
-2219 -3z m3477 -39 l3 -33 -780 0 -781 0 0 28 c0 16 3 32 7 35 3 4 353 6 777
5 l771 -3 3 -32z m2 -83 l0 -30 -780 0 -780 0 0 30 0 30 780 0 780 0 0 -30z
m-182 -237 l-3 -188 -467 -3 -468 -2 0 190 0 190 470 0 470 0 -2 -187z m-1198
-613 l0 -200 -57 -2 -58 -2 58 -3 c53 -4 57 -6 57 -28 l0 -25 -190 0 -190 0 0
230 0 230 190 0 190 0 0 -200z m77 -1227 c-1 -71 -3 -13 -3 127 0 140 2 198 3
128 2 -71 2 -185 0 -255z"/>
<path d="M6460 8533 c99 -3 147 -7 152 -16 6 -9 8 -9 8 1 0 6 7 12 15 12 21 0
19 -14 -7 -36 -12 -10 -18 -13 -14 -6 5 8 0 12 -16 12 -18 0 -20 2 -8 10 8 5
11 10 5 10 -5 0 -17 -5 -25 -10 -13 -9 -13 -10 0 -10 13 0 13 -1 0 -11 -12 -8
-10 -9 8 -4 16 5 22 2 22 -9 0 -9 6 -15 13 -13 9 1 12 -24 11 -105 -1 -60 3
-108 8 -108 5 0 7 54 6 120 l-3 120 72 0 72 0 4 -122 3 -123 2 128 2 127 -69
0 c-59 0 -69 2 -67 18 1 16 -13 17 -169 18 -161 0 -162 0 -25 -3z"/>
<path d="M7190 8510 c0 -6 -68 -10 -184 -10 -113 0 -187 -4 -191 -10 -4 -7 60
-10 184 -10 142 0 190 -3 194 -12 2 -7 4 2 4 20 0 17 -2 32 -4 32 -1 0 -3 -4
-3 -10z"/>
<path d="M6515 8489 c-4 -6 -4 -13 -1 -16 3 -4 6 -1 6 5 0 6 8 13 18 15 15 4
15 5 0 6 -9 0 -20 -4 -23 -10z"/>
<path d="M6816 8451 c2 -2 -2 -11 -9 -19 -10 -13 -9 -14 2 -7 17 10 322 19
357 11 13 -4 24 -11 24 -16 0 -6 -73 -10 -192 -10 -105 0 -188 -3 -185 -7 4
-3 1 -13 -5 -22 -10 -13 -10 -14 2 -3 10 9 65 12 196 12 161 0 183 2 188 17
13 32 -13 38 -199 43 -101 3 -182 3 -179 1z"/>
<path d="M6462 8408 c-21 -21 -14 -57 14 -70 28 -13 49 -5 68 25 22 35 -51 76
-82 45z m72 -20 c8 -14 7 -21 -6 -34 -24 -24 -68 -11 -68 20 0 12 3 26 7 30
12 12 56 2 67 -16z"/>
<path d="M6474 8389 c-3 -6 0 -17 7 -25 18 -17 44 -2 36 20 -7 18 -33 21 -43
5z m31 -8 c3 -5 1 -12 -5 -16 -5 -3 -10 1 -10 9 0 18 6 21 15 7z"/>
<path d="M7190 8372 c0 -9 -52 -12 -191 -12 -113 0 -188 -4 -184 -9 3 -5 85
-10 184 -11 150 0 180 2 191 15 7 8 10 18 6 22 -3 3 -6 1 -6 -5z"/>
<path d="M7191 8324 c0 -11 3 -14 6 -6 3 7 2 16 -1 19 -3 4 -6 -2 -5 -13z"/>
<path d="M6995 8293 c135 -3 192 -7 198 -16 6 -9 7 -8 4 3 -3 13 -34 15 -198
15 l-194 1 190 -3z"/>
<path d="M6810 8268 c6 -7 6 -16 -1 -24 -24 -29 3 -34 191 -34 190 0 215 5
190 35 -10 12 -47 15 -189 15 -103 0 -182 4 -189 10 -9 7 -9 7 -2 -2z m380
-38 c0 -6 -70 -10 -190 -10 -120 0 -190 4 -190 10 0 6 70 10 190 10 120 0 190
-4 190 -10z"/>
<path d="M6383 8203 c42 -2 112 -2 155 0 42 1 7 3 -78 3 -85 0 -120 -2 -77 -3z"/>
<path d="M5715 7942 c-52 -11 -77 -70 -51 -120 25 -49 82 -57 121 -17 28 27
33 79 11 107 -16 21 -55 36 -81 30z m68 -30 c10 -9 17 -29 17 -49 0 -68 -78
-99 -119 -47 -25 32 -26 52 -5 82 29 42 69 47 107 14z"/>
<path d="M5882 7907 c-26 -27 -28 -54 -7 -84 14 -20 61 -41 49 -22 -3 5 -12 9
-19 9 -34 0 -46 67 -17 93 24 22 55 21 75 -1 23 -25 21 -58 -3 -82 -11 -11
-16 -20 -11 -20 15 0 41 42 41 65 0 29 -36 65 -64 65 -12 0 -32 -10 -44 -23z"/>
<path d="M5873 7718 c-20 -22 -27 -43 -24 -80 1 -20 35 -58 52 -58 5 0 -2 11
-17 23 -49 42 -25 127 35 127 44 0 71 -26 71 -69 0 -40 -19 -65 -55 -74 -18
-4 -18 -5 3 -6 57 -3 86 96 40 139 -29 27 -79 26 -105 -2z"/>
<path d="M5687 7702 c-36 -40 -5 -113 46 -111 20 1 20 2 2 6 -55 14 -75 78
-33 107 12 9 18 16 12 16 -6 0 -18 -8 -27 -18z"/>
<path d="M5770 7700 c24 -24 25 -47 4 -80 l-16 -25 21 24 c12 13 21 31 21 40
0 20 -27 61 -41 61 -5 0 0 -9 11 -20z"/>
<path d="M5688 7553 c7 -3 16 -2 19 1 4 3 -2 6 -13 5 -11 0 -14 -3 -6 -6z"/>
<path d="M5818 7553 c18 -2 45 -2 60 0 15 2 0 4 -33 4 -33 0 -45 -2 -27 -4z"/>
<path d="M5820 7530 c0 -5 5 -10 11 -10 5 0 7 5 4 10 -3 6 -8 10 -11 10 -2 0
-4 -4 -4 -10z"/>
<path d="M5886 7523 c-6 -14 -5 -15 5 -6 7 7 10 15 7 18 -3 3 -9 -2 -12 -12z"/>
<path d="M10240 7280 l0 -890 505 0 505 0 0 135 0 135 -85 0 -85 0 0 -55 0
-55 -333 0 -334 0 -6 256 c-4 141 -4 470 0 730 l6 474 334 0 333 0 0 -277 c0
-153 3 -288 6 -300 6 -21 12 -23 85 -23 l79 0 0 380 0 380 -505 0 -505 0 0
-890z"/>
<path d="M11260 7410 c0 -322 2 -370 15 -370 13 0 15 48 15 370 0 322 -2 370
-15 370 -13 0 -15 -48 -15 -370z"/>
<path d="M5840 6750 c-6 -11 -18 -20 -28 -21 -14 0 -13 -2 4 -11 12 -5 27 -21
33 -34 9 -20 8 -24 -6 -24 -9 0 -28 10 -42 22 -14 13 -20 16 -13 8 17 -20 15
-30 -5 -31 -16 0 -16 -1 1 -8 14 -5 16 -10 8 -15 -7 -4 -12 -13 -12 -19 1 -7
9 -2 19 11 38 45 95 10 87 -53 -2 -16 -1 -22 1 -12 4 18 5 18 19 0 14 -17 15
-16 8 6 -5 19 -3 23 10 18 9 -4 16 -3 16 2 0 5 -11 12 -24 15 -28 7 -43 46
-18 46 8 0 24 -8 35 -17 19 -17 20 -17 14 0 -4 12 -1 17 11 17 15 1 15 2 1 13
-9 7 -14 19 -12 27 3 11 1 10 -10 -2 -8 -10 -23 -18 -35 -18 -29 0 -17 38 14
46 13 3 24 10 24 15 0 5 -7 6 -16 2 -13 -5 -15 -1 -10 18 7 22 6 23 -8 6 -11
-14 -15 -15 -19 -5 -2 7 -3 1 -1 -13 2 -15 -3 -35 -11 -45 -13 -18 -14 -17
-20 9 -4 15 -5 36 -2 47 7 26 1 26 -13 0z"/>
<path d="M5842 6620 c-7 -11 -19 -20 -27 -20 -8 0 -15 -4 -15 -10 0 -5 6 -7
14 -4 9 3 20 -4 28 -20 12 -24 13 -23 13 25 0 27 0 49 0 49 0 0 -6 -9 -13 -20z"/>
<path d="M5821 6564 c0 -11 3 -14 6 -6 3 7 2 16 -1 19 -3 4 -6 -2 -5 -13z"/>
<path d="M7615 2488 c-121 -121 -220 -228 -221 -238 -2 -25 380 -405 396 -395
8 5 -51 71 -179 199 l-191 191 219 219 c133 133 217 224 214 233 -3 7 -8 13
-12 13 -3 -1 -105 -100 -226 -222z"/>
</g>
</svg>
